<?xml version="1.0" encoding="UTF-8"?>
<svg xmlns="http://www.w3.org/2000/svg" xmlns:xlink="http://www.w3.org/1999/xlink" width="25pt" height="25pt" viewBox="0 0 25 25" version="1.1">
<g id="surface1">
<path style=" stroke:none;fill-rule:nonzero;fill:rgb(0%,0%,0%);fill-opacity:1;" d="M 3.082031 10.792969 L 18.503906 10.792969 L 18.503906 9.25 L 3.082031 9.25 Z M 11.566406 20.046875 L 16.960938 20.046875 L 16.960938 18.503906 L 11.566406 18.503906 Z M 11.566406 16.960938 L 18.503906 16.960938 L 18.503906 15.417969 L 11.566406 15.417969 Z M 11.566406 13.878906 L 18.503906 13.878906 L 18.503906 12.335938 L 11.566406 12.335938 Z M 3.082031 20.046875 L 10.023438 20.046875 L 10.023438 12.335938 L 3.082031 12.335938 Z M 21.585938 7.710938 L 21.585938 4.625 L 0 4.625 L 0 21.585938 C 0 21.585938 0 24.671875 3.082031 24.671875 L 22.359375 24.671875 C 22.359375 24.671875 24.671875 24.621094 24.671875 21.585938 L 24.671875 7.710938 Z M 3.082031 23.128906 C 1.542969 23.128906 1.542969 21.585938 1.542969 21.585938 L 1.542969 6.167969 L 20.046875 6.167969 L 20.046875 21.585938 C 20.046875 22.296875 20.265625 22.789062 20.566406 23.128906 Z M 3.082031 23.128906 "/>
</g>
</svg>
