<?xml version="1.0" encoding="UTF-8"?>
<svg xmlns="http://www.w3.org/2000/svg" xmlns:xlink="http://www.w3.org/1999/xlink" width="32pt" height="32pt" viewBox="0 0 32 32" version="1.1">
<g id="surface1">
<path style=" stroke:none;fill-rule:nonzero;fill:rgb(0%,0%,0%);fill-opacity:1;" d="M 3.886719 13.621094 L 23.351562 13.621094 L 23.351562 11.671875 L 3.886719 11.671875 Z M 14.597656 25.300781 L 21.40625 25.300781 L 21.40625 23.351562 L 14.597656 23.351562 Z M 14.597656 21.40625 L 23.351562 21.40625 L 23.351562 19.457031 L 14.597656 19.457031 Z M 14.597656 17.515625 L 23.351562 17.515625 L 23.351562 15.570312 L 14.597656 15.570312 Z M 3.886719 25.300781 L 12.648438 25.300781 L 12.648438 15.570312 L 3.886719 15.570312 Z M 27.242188 9.730469 L 27.242188 5.835938 L 0 5.835938 L 0 27.242188 C 0 27.242188 0 31.136719 3.886719 31.136719 L 28.21875 31.136719 C 28.21875 31.136719 31.136719 31.070312 31.136719 27.242188 L 31.136719 9.730469 Z M 3.886719 29.191406 C 1.953125 29.191406 1.953125 27.242188 1.953125 27.242188 L 1.953125 7.785156 L 25.300781 7.785156 L 25.300781 27.242188 C 25.300781 28.140625 25.574219 28.765625 25.957031 29.191406 Z M 3.886719 29.191406 "/>
</g>
</svg>
