<?xml version="1.0" encoding="UTF-8"?>
<svg xmlns="http://www.w3.org/2000/svg" xmlns:xlink="http://www.w3.org/1999/xlink" width="35pt" height="32pt" viewBox="0 0 35 32" version="1.1">
<g id="surface1">
<path style=" stroke:none;fill-rule:nonzero;fill:rgb(0%,0%,0%);fill-opacity:1;" d="M 33.425781 25.6875 C 33.425781 27.207031 32.230469 28.441406 30.769531 28.441406 L 4.25 28.441406 C 2.792969 28.441406 1.59375 27.207031 1.59375 25.6875 L 1.59375 4.75 C 1.59375 3.238281 2.792969 1.996094 4.25 1.996094 L 30.769531 1.996094 C 32.230469 1.996094 33.425781 3.238281 33.425781 4.75 Z M 4.25 4.199219 C 3.964844 4.199219 3.71875 4.460938 3.71875 4.75 L 3.71875 25.6875 C 3.71875 25.980469 3.964844 26.242188 4.25 26.242188 L 30.769531 26.242188 C 31.050781 26.242188 31.300781 25.980469 31.300781 25.6875 L 31.300781 4.75 C 31.300781 4.460938 31.050781 4.199219 30.769531 4.199219 Z M 9.023438 13.019531 C 7.265625 13.019531 5.839844 11.535156 5.839844 9.710938 C 5.839844 7.882812 7.265625 6.40625 9.023438 6.40625 C 10.78125 6.40625 12.203125 7.882812 12.203125 9.710938 C 12.203125 11.535156 10.78125 13.019531 9.023438 13.019531 Z M 29.179688 24.035156 L 5.839844 24.035156 L 5.839844 20.726562 L 11.144531 15.21875 L 13.792969 17.972656 L 22.28125 9.160156 L 29.179688 16.320312 Z M 29.179688 24.035156 "/>
</g>
</svg>
