<?xml version="1.0" encoding="UTF-8"?>
<svg xmlns="http://www.w3.org/2000/svg" xmlns:xlink="http://www.w3.org/1999/xlink" width="39pt" height="35pt" viewBox="0 0 39 35" version="1.1">
<g id="surface1">
<path style=" stroke:none;fill-rule:nonzero;fill:rgb(0%,0%,0%);fill-opacity:1;" d="M 37.484375 28.097656 C 37.484375 29.753906 36.144531 31.109375 34.511719 31.109375 L 4.765625 31.109375 C 3.128906 31.109375 1.789062 29.753906 1.789062 28.097656 L 1.789062 5.195312 C 1.789062 3.539062 3.128906 2.183594 4.765625 2.183594 L 34.511719 2.183594 C 36.144531 2.183594 37.484375 3.539062 37.484375 5.195312 Z M 4.765625 4.59375 C 4.449219 4.59375 4.171875 4.878906 4.171875 5.195312 L 4.171875 28.097656 C 4.171875 28.417969 4.449219 28.699219 4.765625 28.699219 L 34.511719 28.699219 C 34.824219 28.699219 35.105469 28.417969 35.105469 28.097656 L 35.105469 5.195312 C 35.105469 4.878906 34.824219 4.59375 34.511719 4.59375 Z M 10.121094 14.234375 C 8.148438 14.234375 6.550781 12.617188 6.550781 10.621094 C 6.550781 8.625 8.148438 7.003906 10.121094 7.003906 C 12.089844 7.003906 13.6875 8.625 13.6875 10.621094 C 13.6875 12.617188 12.089844 14.234375 10.121094 14.234375 Z M 32.726562 26.289062 L 6.550781 26.289062 L 6.550781 22.671875 L 12.5 16.648438 L 15.472656 19.660156 L 24.992188 10.019531 L 32.726562 17.851562 Z M 32.726562 26.289062 "/>
</g>
</svg>
