<?xml version="1.0" encoding="UTF-8"?>
<svg xmlns="http://www.w3.org/2000/svg" xmlns:xlink="http://www.w3.org/1999/xlink" width="31pt" height="28pt" viewBox="0 0 31 28" version="1.1">
<g id="surface1">
<path style=" stroke:none;fill-rule:nonzero;fill:rgb(0%,0%,0%);fill-opacity:1;" d="M 29.796875 22.476562 C 29.796875 23.804688 28.730469 24.886719 27.429688 24.886719 L 3.789062 24.886719 C 2.488281 24.886719 1.421875 23.804688 1.421875 22.476562 L 1.421875 4.15625 C 1.421875 2.832031 2.488281 1.746094 3.789062 1.746094 L 27.429688 1.746094 C 28.730469 1.746094 29.796875 2.832031 29.796875 4.15625 Z M 3.789062 3.675781 C 3.535156 3.675781 3.316406 3.902344 3.316406 4.15625 L 3.316406 22.476562 C 3.316406 22.734375 3.535156 22.960938 3.789062 22.960938 L 27.429688 22.960938 C 27.679688 22.960938 27.902344 22.734375 27.902344 22.476562 L 27.902344 4.15625 C 27.902344 3.902344 27.679688 3.675781 27.429688 3.675781 Z M 8.042969 11.390625 C 6.476562 11.390625 5.207031 10.09375 5.207031 8.496094 C 5.207031 6.898438 6.476562 5.605469 8.042969 5.605469 C 9.609375 5.605469 10.878906 6.898438 10.878906 8.496094 C 10.878906 10.09375 9.609375 11.390625 8.042969 11.390625 Z M 26.011719 21.03125 L 5.207031 21.03125 L 5.207031 18.136719 L 9.933594 13.316406 L 12.296875 15.726562 L 19.863281 8.015625 L 26.011719 14.28125 Z M 26.011719 21.03125 "/>
</g>
</svg>
